# Blender v2.81 (sub 16) OBJ File: ''
# www.blender.org
mtllib rock.mtl
o rock.025
v 0.520782 -0.046487 1.060815
v 0.344600 0.110591 1.103116
v 0.427109 -0.411444 1.192639
v 0.507711 -0.179907 1.286266
v 0.550358 -0.239018 1.181007
v 0.495009 -0.482040 0.957869
v 0.557160 -0.332770 1.026178
v 0.542066 -0.061227 0.774078
v 0.555179 -0.079967 0.944209
v 0.376757 0.030109 0.736861
v 0.369324 0.154727 0.891455
v 0.467034 0.063789 1.020957
v 0.582816 -0.317027 0.916835
v 0.502743 -0.264584 0.709770
v 0.043325 0.338407 0.643943
v -0.071597 0.580341 0.877195
v 0.100201 0.543037 0.805539
v -0.126500 0.478878 0.691560
v -0.327032 0.405448 0.673317
v -0.260364 0.541797 0.798177
v -0.365697 0.500502 0.909343
v -0.456860 0.383547 0.875103
v -0.006769 0.568354 1.252116
v -0.049584 0.597578 1.024937
v 0.028719 0.603929 1.129337
v 0.167862 0.437327 1.160667
v -0.270570 0.574440 1.150070
v -0.457502 0.476268 1.159712
v -0.488630 0.405129 1.053492
v -0.343270 0.464164 1.313053
v -0.319924 0.336260 1.353685
v 0.005931 0.230036 1.419653
v 0.039578 -0.070606 1.519332
v -0.106636 -0.385278 1.534134
v -0.270720 -0.325526 1.498778
v 0.196873 -0.090502 1.442391
v 0.311779 -0.103866 1.382591
v 0.124233 0.213206 0.686178
v 0.293098 0.171230 0.753257
v 0.109899 -0.068799 0.712896
v 0.380692 -0.202538 0.676866
v 0.164006 -0.304384 0.591796
v -0.081600 0.072824 0.583196
v -0.282568 -0.063954 0.534975
v 0.027578 -0.282576 0.563619
v -0.204962 0.313553 0.635747
v -0.317196 0.191501 0.617053
v 0.307395 -0.279232 1.335331
v 0.200534 -0.293828 1.394324
v -0.086755 -0.573711 1.287751
v -0.275776 -0.505793 1.306153
v -0.136877 -0.603622 1.118874
v -0.100200 -0.607090 1.035828
v -0.353960 -0.480085 1.034405
v -0.302194 -0.564667 1.067141
v 0.249881 -0.510773 1.241821
v 0.181029 -0.633846 1.107045
v 0.367085 -0.552068 1.020540
v 0.141614 -0.574421 0.939913
v 0.304045 -0.545529 0.886330
v 0.409973 -0.497029 0.795329
v 0.009748 -0.566924 0.872767
v -0.353339 -0.450126 0.934683
v -0.111172 -0.467715 0.769597
v 0.024306 -0.445942 0.633437
v -0.125020 -0.345302 0.636517
v -0.222882 -0.339033 0.727277
v 0.156359 -0.460809 0.626826
v 0.326022 -0.438949 0.658147
v -0.511376 -0.049332 0.767729
v -0.464830 -0.171282 0.647757
v -0.317362 -0.308703 0.692831
v -0.362557 -0.127551 0.541733
v -0.310297 -0.199817 0.594453
v -0.539910 -0.070925 0.945378
v -0.514048 -0.261075 0.849983
v -0.392248 -0.334110 0.780096
v -0.484779 -0.332636 0.939035
v -0.430613 0.384583 0.767552
v -0.491659 0.228221 0.901741
v -0.543595 0.081595 0.964850
v -0.427749 0.174702 0.654676
v -0.403197 0.290477 0.681007
v -0.558323 0.040559 1.088410
v -0.522607 0.288237 1.102499
v -0.519248 -0.124213 1.204340
v -0.477116 -0.320432 1.251755
v -0.562063 -0.195984 1.069218
v -0.453150 -0.104837 1.295283
v -0.380698 -0.190559 1.410129
v -0.465402 0.175021 1.257593
v -0.419594 0.316612 1.290053
v -0.326214 0.072874 1.344066
v -0.365877 0.172274 1.344319
v 0.558663 -0.313752 0.793424
v 0.098427 0.579195 0.999071
v 0.171985 0.185003 1.351604
v 0.226649 0.047475 1.317336
v -0.048035 -0.176999 0.552283
v -0.115613 -0.099038 0.517742
v -0.219931 0.325812 1.385314
v -0.256941 0.543042 0.936799
v 0.474890 -0.074171 1.224301
v -0.270153 0.551407 1.293882
v -0.023114 0.511062 1.347765
v -0.403479 0.498496 1.076629
v -0.135478 0.091116 1.435815
v 0.156255 0.257540 1.254967
v -0.123309 -0.257454 1.539880
v 0.003906 -0.555803 1.365536
v 0.304879 -0.401868 1.295103
v -0.297238 -0.434468 1.445366
v 0.052011 -0.546744 0.727802
v -0.268124 -0.412850 0.770559
v -0.519492 -0.320480 1.085978
v -0.175853 -0.254394 0.597308
v 0.313522 0.255359 0.992869
vt 1 1
vn 0.5980 0.5629 0.5705
vn 0.9128 0.3763 0.1585
vn 0.3636 -0.2971 0.8829
vn 0.5300 0.5692 0.6287
vn 0.3464 -0.2522 0.9036
vn 0.7819 -0.4975 0.3757
vn 0.5810 -0.7177 0.3839
vn 0.7830 0.6219 0.0082
vn 0.7776 0.6269 0.0494
vn 0.9804 0.0498 -0.1906
vn 0.8347 0.0127 -0.5505
vn 0.3310 0.2257 -0.9162
vn 0.2671 0.0145 -0.9635
vn -0.1985 0.9801 -0.0039
vn 0.0061 0.8929 -0.4502
vn 0.2404 0.5595 -0.7932
vn 0.0998 0.9865 -0.1300
vn -0.5569 0.6924 -0.4588
vn -0.2315 0.0886 -0.9688
vn -0.3644 0.9312 0.0006
vn -0.7505 0.6368 -0.1770
vn -0.0285 0.9907 0.1328
vn -0.3145 0.9322 0.1792
vn 0.8393 0.2090 0.5019
vn 0.8276 0.5473 0.1249
vn -0.4545 0.8793 0.1422
vn -0.6063 0.6181 0.5004
vn -0.4666 0.8819 -0.0675
vn -0.3486 0.9348 -0.0675
vn -0.1494 0.3300 0.9321
vn 0.6475 0.4303 0.6290
vn 0.4122 0.7596 0.5031
vn 0.6954 0.2447 0.6756
vn 0.7247 0.2828 0.6283
vn 0.7443 0.4067 0.5297
vn -0.4143 -0.1676 0.8946
vn -0.0441 0.2433 0.9689
vn -0.1958 0.2742 0.9415
vn 0.1527 -0.0245 0.9880
vn 0.4493 -0.1675 0.8775
vn 0.4339 -0.1999 0.8785
vn 0.4941 -0.2377 0.8363
vn 0.5022 -0.1068 -0.8581
vn 0.5788 0.4002 -0.7105
vn 0.3484 -0.0896 -0.9331
vn 0.8479 0.4734 -0.2385
vn 0.4346 0.4887 -0.7565
vn 0.2089 0.0447 -0.9769
vn -0.0356 0.1921 -0.9807
vn 0.5244 0.6449 0.5559
vn 0.6023 0.1772 -0.7783
vn -0.0208 0.3594 -0.9329
vn -0.2078 -0.4830 -0.8506
vn -0.1455 -0.4057 -0.9023
vn 0.0185 0.3081 -0.9512
vn -0.0446 0.1912 -0.9805
vn 0.4509 -0.5655 0.6906
vn 0.4773 -0.4417 0.7597
vn -0.2444 -0.8778 0.4120
vn -0.3183 -0.3537 0.8795
vn -0.1201 -0.7363 0.6659
vn -0.7265 -0.1518 0.6702
vn 0.0603 -0.9858 0.1567
vn -0.7158 -0.6555 0.2406
vn -0.6950 -0.5864 -0.4160
vn 0.3935 -0.7701 0.5021
vn -0.1419 -0.9703 0.1957
vn 0.5299 -0.7434 0.4081
vn 0.2226 -0.9008 -0.3728
vn 0.5222 -0.7406 0.4230
vn 0.0121 -0.9909 -0.1344
vn 0.0555 -0.9394 -0.3383
vn -0.4736 -0.8429 -0.2554
vn -0.3097 -0.8798 -0.3606
vn -0.5065 -0.7460 -0.4324
vn -0.4307 -0.8636 -0.2621
vn -0.2309 -0.4708 -0.8515
vn -0.4711 -0.6684 -0.5756
vn -0.5407 -0.6464 -0.5383
vn -0.4665 -0.6747 -0.5720
vn -0.4642 -0.6602 -0.5905
vn -0.5765 -0.5734 -0.5821
vn 0.3703 -0.0121 -0.9288
vn -0.4509 -0.6753 -0.5836
vn -0.3444 -0.7030 -0.6222
vn -0.9568 -0.0947 -0.2749
vn -0.9875 0.0203 -0.1562
vn -0.8934 -0.4446 -0.0637
vn -0.9804 0.1376 -0.1408
vn -0.9572 0.1781 -0.2280
vn -0.8266 0.0516 -0.5604
vn -0.9624 0.1809 -0.2024
vn -0.3464 0.2619 -0.9008
vn -0.2834 0.2583 -0.9236
vn -0.7735 0.2920 -0.5625
vn -0.6605 0.3949 -0.6386
vn -0.2474 0.3650 -0.8975
vn -0.3470 0.2774 -0.8959
vn -0.9006 0.0862 0.4261
vn -0.9692 0.1508 -0.1945
vn -0.9517 -0.0098 0.3068
vn -0.9584 -0.1466 0.2450
vn -0.6921 -0.6998 0.1771
vn -0.8497 -0.0120 0.5271
vn -0.6390 -0.2568 0.7251
vn -0.5351 -0.0205 0.8445
vn -0.2987 0.0292 0.9539
vn 0.8934 0.3285 0.3064
vn -0.8932 0.1358 0.4286
vn 0.8050 0.5049 0.3115
vn 0.5654 0.6926 0.4480
vn 0.6997 -0.4634 0.5437
vn 0.5450 -0.4704 0.6941
vn 0.9909 0.1302 -0.0353
vn 0.9619 0.0911 0.2576
vn 0.7721 -0.5280 0.3537
vn 0.8488 0.2442 -0.4689
vn 0.4985 0.6865 -0.5294
vn 0.7812 0.6015 -0.1670
vn 0.9905 0.1227 -0.0628
vn 0.8493 -0.4965 -0.1794
vn 0.7320 -0.5973 -0.3279
vn 0.6207 -0.5098 -0.5957
vn 0.9672 0.0851 0.2392
vn 0.8880 -0.4363 0.1455
vn 0.3639 0.2384 -0.9004
vn 0.6152 -0.4274 -0.6625
vn 0.0073 0.8652 -0.5014
vn 0.1361 0.9741 -0.1807
vn 0.8283 0.5520 -0.0955
vn -0.2000 0.7131 -0.6719
vn -0.0008 0.3202 -0.9474
vn -0.0372 0.3354 -0.9413
vn -0.2214 0.9719 -0.0804
vn -0.6137 0.7253 -0.3120
vn -0.7545 0.6358 -0.1628
vn -0.6967 0.6868 -0.2072
vn 0.0990 0.9860 -0.1342
vn 0.6743 0.5770 0.4609
vn 0.7164 0.6473 0.2604
vn 0.6741 0.6342 0.3786
vn -0.6807 0.6851 -0.2593
vn -0.1892 0.9697 -0.1548
vn -0.4224 0.8925 -0.1584
vn -0.0384 0.9867 0.1581
vn 0.0269 0.8555 0.5171
vn -0.1513 0.3483 0.9251
vn -0.5533 0.1588 0.8177
vn -0.2687 0.2467 0.9311
vn 0.4483 0.3261 0.8322
vn 0.3567 -0.0899 0.9299
vn 0.9328 0.3442 0.1065
vn 0.7456 0.4976 0.4432
vn -0.1790 0.2915 0.9397
vn -0.3443 0.0774 0.9357
vn -0.0703 0.1856 0.9801
vn -0.3826 0.2520 0.8889
vn -0.4365 0.3027 0.8472
vn -0.3744 0.2763 0.8851
vn -0.2358 -0.0743 0.9689
vn 0.4347 0.5515 0.7120
vn 0.4094 -0.2029 0.8895
vn 0.4522 -0.0087 -0.8919
vn 0.3443 -0.1059 -0.9329
vn 0.2315 0.2466 -0.9411
vn 0.6788 0.6728 -0.2941
vn 0.7798 0.5052 -0.3698
vn 0.6388 0.1784 -0.7484
vn 0.1188 0.4754 -0.8717
vn -0.0988 0.0186 -0.9949
vn -0.1908 -0.2389 -0.9521
vn -0.0494 -0.4401 -0.8966
vn -0.0096 -0.5939 -0.8045
vn 0.0104 0.2183 -0.9758
vn 0.3930 -0.3866 0.8343
vn 0.4930 -0.2803 0.8237
vn -0.2529 -0.8359 0.4872
vn -0.2957 -0.9217 0.2510
vn -0.3041 -0.9166 0.2594
vn 0.1477 -0.9833 0.1063
vn -0.2132 -0.9756 -0.0534
vn 0.5006 -0.5711 0.6506
vn -0.0051 -0.9426 -0.3339
vn 0.0499 -0.9771 -0.2070
vn 0.1102 -0.9246 -0.3646
vn 0.3459 -0.9335 -0.0949
vn 0.3818 -0.8970 -0.2230
vn 0.1379 -0.9840 -0.1127
vn -0.3419 -0.8448 -0.4116
vn -0.6285 -0.6898 -0.3595
vn -0.3421 -0.8325 -0.4357
vn -0.2702 -0.3738 -0.8873
vn -0.1549 -0.4274 -0.8907
vn 0.1211 -0.5563 -0.8221
vn -0.0610 -0.8262 -0.5601
vn -0.1138 -0.6955 -0.7095
vn 0.4244 -0.8574 -0.2911
vn 0.1990 -0.8528 -0.4828
vn -0.0898 -0.3899 -0.9165
vn 0.1628 -0.2232 -0.9611
vn 0.2047 -0.2234 -0.9530
vn -0.7354 0.0922 -0.6713
vn -0.3564 -0.6135 -0.7047
vn -0.2448 -0.6412 -0.7273
vn -0.9786 -0.0636 -0.1955
vn -0.6336 -0.6380 -0.4375
vn -0.6223 -0.6973 -0.3558
vn -0.6540 -0.7234 -0.2214
vn -0.9210 -0.3404 -0.1894
vn -0.9236 0.1718 -0.3428
vn -0.9569 0.1746 -0.2318
vn -0.9607 0.1975 -0.1950
vn -0.8870 0.1041 -0.4499
vn -0.9428 0.3332 -0.0017
vn -0.6343 0.0758 0.7693
vn -0.8749 0.1643 0.4557
vn -0.9491 0.3064 0.0729
vn -0.9885 0.0277 -0.1488
vn -0.9926 -0.0085 -0.1211
vn -0.8789 -0.2455 0.4089
vn -0.7074 -0.6983 -0.1093
vn -0.6844 0.3074 0.6612
vn -0.8055 -0.0299 0.5918
vn -0.7706 -0.1752 0.6128
vn -0.6918 -0.6804 0.2419
vn -0.7539 0.2987 0.5852
vn -0.6484 0.1389 0.7485
usemtl None
s off
f 2/1/1 12/1/1 117/1/1
f 4/1/2 5/1/2 103/1/2
f 4/1/3 48/1/3 111/1/3
f 37/1/4 4/1/4 98/1/4
f 48/1/5 4/1/5 37/1/5
f 6/1/6 7/1/6 3/1/6
f 3/1/7 58/1/7 6/1/7
f 9/1/8 8/1/8 11/1/8
f 11/1/9 1/1/9 9/1/9
f 8/1/10 13/1/10 95/1/10
f 14/1/11 8/1/11 95/1/11
f 10/1/12 8/1/12 14/1/12
f 14/1/13 69/1/13 41/1/13
f 20/1/14 102/1/14 16/1/14
f 16/1/15 17/1/15 20/1/15
f 17/1/16 15/1/16 18/1/16
f 24/1/17 96/1/17 16/1/17
f 79/1/18 20/1/18 19/1/18
f 46/1/19 83/1/19 19/1/19
f 102/1/20 20/1/20 21/1/20
f 79/1/21 22/1/21 21/1/21
f 23/1/22 24/1/22 27/1/22
f 24/1/23 23/1/23 25/1/23
f 26/1/24 108/1/24 117/1/24
f 117/1/25 96/1/25 26/1/25
f 28/1/26 104/1/26 27/1/26
f 30/1/27 104/1/27 28/1/27
f 27/1/28 106/1/28 28/1/28
f 102/1/29 21/1/29 106/1/29
f 104/1/30 30/1/30 105/1/30
f 32/1/31 36/1/31 98/1/31
f 32/1/32 97/1/32 108/1/32
f 108/1/33 105/1/33 32/1/33
f 26/1/34 105/1/34 108/1/34
f 108/1/35 98/1/35 2/1/35
f 107/1/36 94/1/36 93/1/36
f 101/1/37 32/1/37 105/1/37
f 109/1/38 33/1/38 107/1/38
f 109/1/39 34/1/39 33/1/39
f 33/1/40 34/1/40 49/1/40
f 36/1/41 49/1/41 37/1/41
f 48/1/42 37/1/42 49/1/42
f 40/1/43 43/1/43 38/1/43
f 15/1/44 17/1/44 39/1/44
f 39/1/45 38/1/45 15/1/45
f 39/1/46 17/1/46 117/1/46
f 40/1/47 42/1/47 99/1/47
f 45/1/48 99/1/48 42/1/48
f 41/1/49 40/1/49 39/1/49
f 103/1/50 2/1/50 98/1/50 4/1/50
f 100/1/51 43/1/51 99/1/51
f 44/1/52 43/1/52 100/1/52
f 45/1/53 66/1/53 116/1/53
f 74/1/54 100/1/54 116/1/54
f 47/1/55 43/1/55 44/1/55
f 46/1/56 43/1/56 47/1/56
f 56/1/57 111/1/57 110/1/57
f 49/1/58 34/1/58 110/1/58
f 110/1/59 112/1/59 51/1/59
f 34/1/60 35/1/60 112/1/60
f 112/1/61 110/1/61 34/1/61
f 90/1/62 112/1/62 35/1/62
f 52/1/63 110/1/63 50/1/63
f 51/1/64 115/1/64 55/1/64
f 55/1/65 115/1/65 54/1/65
f 56/1/66 110/1/66 57/1/66
f 110/1/67 53/1/67 57/1/67
f 57/1/68 3/1/68 56/1/68
f 59/1/69 58/1/69 57/1/69
f 3/1/70 57/1/70 58/1/70
f 59/1/71 62/1/71 113/1/71
f 59/1/72 68/1/72 60/1/72
f 64/1/73 113/1/73 62/1/73
f 64/1/74 63/1/74 114/1/74
f 63/1/75 77/1/75 114/1/75
f 54/1/76 63/1/76 53/1/76
f 53/1/77 55/1/77 54/1/77
f 113/1/78 64/1/78 65/1/78
f 67/1/79 66/1/79 64/1/79
f 65/1/80 64/1/80 66/1/80
f 114/1/81 77/1/81 72/1/81
f 66/1/82 67/1/82 116/1/82
f 42/1/83 41/1/83 69/1/83
f 71/1/84 72/1/84 77/1/84
f 74/1/85 71/1/85 73/1/85
f 70/1/86 71/1/86 76/1/86
f 75/1/87 70/1/87 88/1/87
f 88/1/88 76/1/88 78/1/88
f 70/1/89 75/1/89 80/1/89
f 79/1/90 70/1/90 80/1/90
f 80/1/91 75/1/91 81/1/91
f 85/1/92 22/1/92 80/1/92
f 47/1/93 73/1/93 82/1/93
f 47/1/94 44/1/94 73/1/94
f 83/1/95 82/1/95 79/1/95
f 79/1/96 19/1/96 83/1/96
f 83/1/97 46/1/97 47/1/97
f 83/1/98 47/1/98 82/1/98
f 91/1/99 84/1/99 86/1/99
f 85/1/100 80/1/100 84/1/100
f 86/1/101 84/1/101 88/1/101
f 87/1/102 86/1/102 115/1/102
f 51/1/103 87/1/103 115/1/103
f 90/1/104 89/1/104 87/1/104
f 93/1/105 94/1/105 91/1/105
f 91/1/106 31/1/106 92/1/106
f 94/1/107 101/1/107 31/1/107
f 103/1/108 5/1/108 1/1/108
f 92/1/109 85/1/109 84/1/109 91/1/109
f 1/1/110 12/1/110 103/1/110
f 12/1/111 2/1/111 103/1/111
f 4/1/112 3/1/112 5/1/112
f 3/1/113 4/1/113 111/1/113
f 7/1/114 1/1/114 5/1/114
f 7/1/115 9/1/115 1/1/115
f 3/1/116 7/1/116 5/1/116
f 11/1/117 12/1/117 1/1/117
f 8/1/118 10/1/118 11/1/118
f 11/1/119 117/1/119 12/1/119
f 8/1/120 9/1/120 13/1/120
f 95/1/121 13/1/121 6/1/121
f 6/1/122 61/1/122 95/1/122
f 61/1/123 69/1/123 95/1/123
f 7/1/124 13/1/124 9/1/124
f 13/1/125 7/1/125 6/1/125
f 10/1/126 14/1/126 41/1/126
f 69/1/127 14/1/127 95/1/127
f 20/1/128 17/1/128 18/1/128
f 16/1/129 96/1/129 17/1/129
f 96/1/130 117/1/130 17/1/130
f 20/1/131 18/1/131 19/1/131
f 15/1/132 46/1/132 18/1/132
f 46/1/133 19/1/133 18/1/133
f 102/1/134 24/1/134 16/1/134
f 79/1/135 21/1/135 20/1/135
f 21/1/136 22/1/136 106/1/136
f 22/1/137 29/1/137 106/1/137
f 25/1/138 96/1/138 24/1/138
f 26/1/139 23/1/139 105/1/139
f 96/1/140 25/1/140 26/1/140
f 25/1/141 23/1/141 26/1/141
f 28/1/142 106/1/142 29/1/142
f 102/1/143 27/1/143 24/1/143
f 102/1/144 106/1/144 27/1/144
f 104/1/145 23/1/145 27/1/145
f 104/1/146 105/1/146 23/1/146
f 105/1/147 30/1/147 101/1/147
f 30/1/148 92/1/148 31/1/148
f 31/1/149 101/1/149 30/1/149
f 32/1/150 33/1/150 36/1/150
f 98/1/151 97/1/151 32/1/151
f 98/1/152 108/1/152 97/1/152
f 108/1/153 2/1/153 117/1/153
f 33/1/154 32/1/154 107/1/154
f 107/1/155 101/1/155 94/1/155
f 101/1/156 107/1/156 32/1/156
f 90/1/157 109/1/157 107/1/157
f 107/1/158 93/1/158 90/1/158
f 35/1/159 109/1/159 90/1/159
f 35/1/160 34/1/160 109/1/160
f 37/1/161 98/1/161 36/1/161
f 49/1/162 36/1/162 33/1/162
f 38/1/163 43/1/163 15/1/163
f 39/1/164 40/1/164 38/1/164
f 39/1/165 10/1/165 41/1/165
f 39/1/166 117/1/166 11/1/166
f 11/1/167 10/1/167 39/1/167
f 40/1/168 99/1/168 43/1/168
f 41/1/169 42/1/169 40/1/169
f 44/1/170 100/1/170 73/1/170
f 99/1/171 45/1/171 116/1/171
f 116/1/172 100/1/172 99/1/172
f 74/1/173 73/1/173 100/1/173
f 46/1/174 15/1/174 43/1/174
f 49/1/175 110/1/175 111/1/175
f 49/1/176 111/1/176 48/1/176
f 50/1/177 110/1/177 51/1/177
f 50/1/178 55/1/178 52/1/178
f 50/1/179 51/1/179 55/1/179
f 52/1/180 53/1/180 110/1/180
f 52/1/181 55/1/181 53/1/181
f 56/1/182 3/1/182 111/1/182
f 57/1/183 53/1/183 59/1/183
f 59/1/184 53/1/184 62/1/184
f 60/1/185 68/1/185 61/1/185
f 61/1/186 6/1/186 60/1/186
f 58/1/187 60/1/187 6/1/187
f 60/1/188 58/1/188 59/1/188
f 62/1/189 63/1/189 64/1/189
f 63/1/190 78/1/190 77/1/190
f 53/1/191 63/1/191 62/1/191
f 45/1/192 65/1/192 66/1/192
f 67/1/193 64/1/193 114/1/193
f 67/1/194 114/1/194 72/1/194
f 116/1/195 67/1/195 72/1/195
f 68/1/196 113/1/196 65/1/196
f 68/1/197 59/1/197 113/1/197
f 68/1/198 69/1/198 61/1/198
f 65/1/199 45/1/199 68/1/199
f 68/1/200 45/1/200 42/1/200
f 42/1/201 69/1/201 68/1/201
f 71/1/202 82/1/202 73/1/202
f 72/1/203 71/1/203 74/1/203
f 74/1/204 116/1/204 72/1/204
f 88/1/205 70/1/205 76/1/205
f 77/1/206 76/1/206 71/1/206
f 76/1/207 77/1/207 78/1/207
f 78/1/208 63/1/208 54/1/208
f 78/1/209 115/1/209 88/1/209
f 79/1/210 82/1/210 70/1/210
f 80/1/211 22/1/211 79/1/211
f 85/1/212 29/1/212 22/1/212
f 82/1/213 71/1/213 70/1/213
f 84/1/214 80/1/214 81/1/214
f 86/1/215 89/1/215 93/1/215 91/1/215
f 85/1/216 92/1/216 28/1/216
f 28/1/217 29/1/217 85/1/217
f 75/1/218 88/1/218 84/1/218
f 84/1/219 81/1/219 75/1/219
f 115/1/220 86/1/220 88/1/220
f 115/1/221 78/1/221 54/1/221
f 93/1/222 89/1/222 90/1/222
f 89/1/223 86/1/223 87/1/223
f 87/1/224 112/1/224 90/1/224
f 51/1/225 112/1/225 87/1/225
f 30/1/226 28/1/226 92/1/226
f 94/1/227 31/1/227 91/1/227
